<?xml version="1.0" encoding="UTF-8" standalone="no"?>
<svg
   id="visual"
   viewBox="0 0 900 150"
   width="900"
   height="150"
   version="1.1"
   xmlns="http://www.w3.org/2000/svg"
   xmlns:svg="http://www.w3.org/2000/svg">
  <defs
     id="defs227" />
  <rect
     x="0.34097645"
     y="-149.57433"
     width="895.98187"
     height="146.905"
     fill="#181818"
     id="rect198"
     style="fill:#000000;fill-opacity:1;stroke-width:0.987415"
     transform="scale(1,-1)" />
  <path
     d="M 0.34097861,18.425654 11.789628,22.712012 c 11.448662,4.195151 34.345975,12.76788 57.243287,16.871838 22.897317,4.103957 45.794635,3.73917 68.891055,0.912001 22.99687,-2.918377 46.2924,-8.390316 69.28926,-12.038293 23.09643,-3.647964 45.99374,-5.471939 68.89105,-5.198346 22.89732,0.364801 45.79463,2.735977 68.69194,4.286358 22.89733,1.550382 45.79465,2.097569 68.89106,1.823989 22.99684,-0.273607 46.29241,-1.550395 69.28926,-1.367982 23.09644,0.182374 45.99373,1.641562 68.89105,4.377538 22.89732,2.73599 45.79461,6.748741 68.69194,7.478328 22.89735,0.729601 45.79463,-1.641575 68.89108,-1.823975 22.99678,-0.1824 46.29234,2.006376 69.28922,0.911988 23.09638,-1.094388 45.99374,-5.289553 68.89102,-9.758311 22.89735,-4.377551 45.79463,-8.937502 57.24328,-11.217485 l 11.4487,-2.279982 V 1.0978214 h -11.4487 c -11.44865,0 -34.34593,0 -57.24328,0 -22.89728,0 -45.79464,0 -68.89102,0 -22.99688,0 -46.29244,0 -69.28922,0 -23.09645,0 -45.99373,0 -68.89108,0 -22.89733,0 -45.79462,0 -68.69194,0 -22.89732,0 -45.79461,0 -68.89105,0 -22.99685,0 -46.29242,0 -69.28926,0 -23.09641,0 -45.99373,0 -68.89106,0 -22.89731,0 -45.79462,0 -68.69194,0 -22.89731,0 -45.79462,0 -68.89105,0 -22.99686,0 -46.29239,0 -69.28926,0 -23.09642,0 -45.993738,0 -68.891055,0 -22.897312,0 -45.794625,0 -57.243287,0 H 0.34097861 Z"
     fill="#f7b500"
     id="path218"
     style="fill:#f0f0f0;fill-opacity:1;stroke-width:0.952846" />
  <path
     d="M 0.34097861,12.354089 11.789628,12.558757 c 11.448662,0.10226 34.345975,0.511636 57.243287,4.093171 22.897317,3.581548 45.794635,10.335308 68.891055,10.539962 22.99687,0.204668 46.2924,-6.344424 69.28926,-8.902672 23.09643,-2.558236 45.99374,-1.125627 68.89105,2.558248 22.89732,3.786176 45.79463,9.925972 68.69194,12.484207 22.89733,2.558249 45.79465,1.53495 68.89106,-0.306981 22.99684,-1.944259 46.29241,-4.604834 69.28926,-6.139797 23.09644,-1.534936 45.99373,-1.944258 68.89105,-3.479194 22.89732,-1.534949 45.79461,-4.195525 68.69194,-6.446778 22.89735,-2.251253 45.79463,-3.88853 68.89108,-3.88853 22.99678,0 46.29234,1.637277 69.28922,4.911829 23.09638,3.274553 45.99374,7.981714 68.89102,11.051613 22.89735,3.069885 45.79463,4.502506 57.24328,5.116483 l 11.4487,0.716305 V 1.0978214 h -11.4487 c -11.44865,0 -34.34593,0 -57.24328,0 -22.89728,0 -45.79464,0 -68.89102,0 -22.99688,0 -46.29244,0 -69.28922,0 -23.09645,0 -45.99373,0 -68.89108,0 -22.89733,0 -45.79462,0 -68.69194,0 -22.89732,0 -45.79461,0 -68.89105,0 -22.99685,0 -46.29242,0 -69.28926,0 -23.09641,0 -45.99373,0 -68.89106,0 -22.89731,0 -45.79462,0 -68.69194,0 -22.89731,0 -45.79462,0 -68.89105,0 -22.99686,0 -46.29239,0 -69.28926,0 -23.09642,0 -45.993738,0 -68.891055,0 -22.897312,0 -45.794625,0 -57.243287,0 H 0.34097861 Z"
     fill="#f9c000"
     id="path220"
     style="fill:#fafafa;fill-opacity:0.714906;stroke-width:1.00932" />
  <path
     d="M 0.34097861,8.9552609 11.789628,12.56969 c 11.448662,3.771571 34.345975,11.000416 57.243287,11.314713 22.897317,0.314311 45.794635,-6.600236 68.891055,-5.185903 22.99687,1.25719 46.2924,10.686131 69.28926,10.214678 23.09643,-0.628609 45.99374,-11.000429 68.89105,-12.100464 22.89732,-1.100048 45.79463,7.386 68.69194,8.643191 22.89733,1.25719 45.79465,-4.40018 68.89106,-7.071703 22.99684,-2.671536 46.29241,-2.042941 69.28926,-1.25719 23.09644,0.785737 45.99373,1.72863 68.89105,4.400166 22.89732,2.671536 45.79461,6.757391 68.69194,7.857453 22.89735,1.100035 45.79463,-1.100062 68.89108,-2.671536 22.99678,-1.571488 46.29234,-2.514381 69.28922,-3.142989 23.09638,-0.47144 45.99374,-0.47144 68.89102,-3.300118 22.89735,-2.985821 45.79463,-8.643191 57.24328,-11.6290247 l 11.4487,-2.8286782 V 1.0978214 h -11.4487 c -11.44865,0 -34.34593,0 -57.24328,0 -22.89728,0 -45.79464,0 -68.89102,0 -22.99688,0 -46.29244,0 -69.28922,0 -23.09645,0 -45.99373,0 -68.89108,0 -22.89733,0 -45.79462,0 -68.69194,0 -22.89732,0 -45.79461,0 -68.89105,0 -22.99685,0 -46.29242,0 -69.28926,0 -23.09641,0 -45.99373,0 -68.89106,0 -22.89731,0 -45.79462,0 -68.69194,0 -22.89731,0 -45.79462,0 -68.89105,0 -22.99686,0 -46.29239,0 -69.28926,0 -23.09642,0 -45.993738,0 -68.891055,0 -22.897312,0 -45.794625,0 -57.243287,0 H 0.34097861 Z"
     fill="#fbcb04"
     id="path222"
     style="fill:#d9d9d9;fill-opacity:0.673948;stroke-width:1.2508" />
</svg>
